<?xml version="1.0" encoding="UTF-8"?><svg id="uuid-a7c23aa8-fb68-4a01-8787-d47b17068d0e" xmlns="http://www.w3.org/2000/svg" viewBox="0 0 700 700"><g id="uuid-ada7e69d-68c1-45b2-9d60-f023783d8d35"><path d="M14.63,385.33c-19.51-19.51-19.51-51.15,0-70.66L314.67,14.63c19.51-19.51,51.15-19.51,70.66,0l300.03,300.04c19.51,19.51,19.51,51.15,0,70.66l-300.03,300.03c-19.51,19.51-51.15,19.51-70.66,0L14.63,385.33Z" fill="#ee513b"/><path d="M253.72,76.54l-30.38,30.38,78.47,78.47c-3.17,6.81-4.95,14.41-4.95,22.42,0,22.74,14.29,42.14,34.38,49.72v191.96c-20.09,7.58-34.38,26.98-34.38,49.72,0,29.34,23.78,53.12,53.12,53.12s53.12-23.78,53.12-53.12c0-20.62-11.74-38.49-28.91-47.29v-194.13l75.01,75.01c-3.02,6.67-4.7,14.08-4.7,21.88,0,29.34,23.79,53.12,53.12,53.12s53.12-23.79,53.12-53.12-23.78-53.13-53.12-53.13c-5.7,0-11.19.9-16.34,2.56l-80.56-80.56c1.54-4.97,2.37-10.26,2.37-15.75,0-29.34-23.78-53.13-53.12-53.13-5.48,0-10.77.83-15.75,2.37l-80.52-80.52Z" fill="#fff"/></g></svg>