<?xml version="1.0" encoding="UTF-8"?><svg id="uuid-96afab77-f94d-407d-9b8d-3177ba62589a" xmlns="http://www.w3.org/2000/svg" viewBox="0 0 800 625.21"><g id="uuid-871e8fcf-dea5-4dbc-8df2-c6cba3281bc9"><path d="M759.4,0H40.6C18.22,0,0,18.22,0,40.6v396.85h0v147.15c0,22.39,18.22,40.6,40.6,40.6h718.79c22.39,0,40.6-18.22,40.6-40.6V40.6c0-22.39-18.22-40.6-40.6-40.6ZM40.6,25.92h718.79c8.1,0,14.69,6.59,14.69,14.69v408.86h-131.5L384.19,191.07c-5.06-5.06-13.27-5.06-18.33,0l-140.66,140.66-53.26-53.26c-5.06-5.06-13.27-5.06-18.33,0l-127.7,127.7V40.6c0-8.1,6.59-14.69,14.69-14.69ZM759.4,599.29H40.6c-8.1,0-14.69-6.59-14.69-14.69v-141.78l136.86-136.86,53.26,53.26s0,0,0,0,0,0,0,0l62.42,62.42c5.06,5.06,13.27,5.06,18.33,0,5.06-5.06,5.06-13.27,0-18.33l-53.26-53.26,131.5-131.5,253.02,253.02c2.43,2.43,5.73,3.8,9.16,3.8h136.87v109.22c0,8.1-6.59,14.69-14.69,14.69Z"/><path d="M612.25,250.65c34.68,0,62.9-28.22,62.9-62.9s-28.22-62.9-62.9-62.9-62.9,28.22-62.9,62.9,28.22,62.9,62.9,62.9ZM612.25,150.77c20.39,0,36.98,16.59,36.98,36.98s-16.59,36.98-36.98,36.98-36.98-16.59-36.98-36.98,16.59-36.98,36.98-36.98Z"/></g></svg>