<?xml version="1.0" encoding="UTF-8"?><svg id="uuid-63108751-d1a5-4fd7-8be3-e3fc109b5a4d" xmlns="http://www.w3.org/2000/svg" viewBox="0 0 800 711.77"><g id="uuid-890126fc-8a7d-4be9-bf9d-d5896b014a7e"><path d="M657.76,230.7c-8.3-2.86-16.9-5.56-25.75-8.12,1.46-5.94,2.79-11.8,3.98-17.56,19.49-94.63,6.75-170.86-36.78-195.96-41.73-24.07-109.99,1.03-178.92,61.02-6.63,5.77-13.28,11.88-19.92,18.28-4.43-4.23-8.85-8.33-13.26-12.24C314.87,11.96,242.46-15.07,198.98,10.1c-41.69,24.14-54.04,95.8-36.49,185.48,1.69,8.66,3.68,17.51,5.92,26.5-10.25,2.91-20.14,6.01-29.61,9.31C54.09,260.93,0,307.21,0,355.21s58.07,99.31,146.29,129.46c6.96,2.38,14.19,4.63,21.63,6.77-2.42,9.73-4.52,19.26-6.28,28.56-16.73,88.12-3.67,158.1,37.92,182.08,42.95,24.77,115.04-.69,185.23-62.05,5.55-4.85,11.12-9.99,16.69-15.38,7.23,6.96,14.45,13.55,21.63,19.73,67.99,58.51,135.14,82.13,176.69,58.08,42.91-24.84,56.85-100.01,38.75-191.46-1.38-6.98-2.99-14.12-4.8-21.38,5.06-1.5,10.03-3.04,14.88-4.65,91.71-30.39,151.38-79.51,151.38-129.75s-55.84-94.77-142.24-124.51h0ZM637.87,452.52c-4.37,1.45-8.86,2.85-13.44,4.21-10.12-32.05-23.79-66.14-40.51-101.35,15.96-34.38,29.09-68.02,38.93-99.87,8.18,2.37,16.13,4.87,23.78,7.5,74.03,25.49,119.19,63.17,119.19,92.2,0,30.93-48.77,71.07-127.96,97.31h0ZM605.01,517.63c8.01,40.44,9.15,77,3.85,105.58-4.76,25.68-14.35,42.81-26.19,49.66-25.21,14.59-79.13-4.38-137.27-54.41-6.67-5.74-13.38-11.86-20.12-18.34,22.54-24.65,45.07-53.31,67.06-85.14,38.67-3.43,75.21-9.04,108.35-16.7,1.63,6.58,3.08,13.04,4.33,19.35h0ZM272.74,670.36c-24.63,8.7-44.25,8.95-56.11,2.11-25.23-14.55-35.73-70.74-21.42-146.1,1.64-8.63,3.59-17.5,5.84-26.56,32.77,7.25,69.04,12.46,107.81,15.6,22.14,31.15,45.32,59.78,68.67,84.84-5.1,4.93-10.19,9.62-15.24,14.04-31.04,27.13-62.14,46.38-89.55,56.06h0ZM157.34,452.33c-39.01-13.33-71.22-30.66-93.31-49.57-19.84-16.99-29.86-33.86-29.86-47.55,0-29.13,43.43-66.29,115.86-91.54,8.79-3.06,17.99-5.95,27.54-8.66,10.01,32.56,23.14,66.61,38.99,101.04-16.05,34.94-29.37,69.53-39.48,102.47-6.81-1.96-13.4-4.02-19.75-6.18h0ZM196.02,189.02c-15.03-76.84-5.05-134.8,20.08-149.34,26.76-15.49,85.95,6.6,148.32,61.98,3.99,3.54,7.99,7.25,12,11.08-23.24,24.96-46.21,53.37-68.15,84.34-37.62,3.49-73.64,9.09-106.75,16.59-2.08-8.37-3.93-16.6-5.5-24.65h0ZM541.11,274.23c-7.92-13.67-16.04-27.02-24.33-40.01,25.52,3.23,49.98,7.51,72.95,12.75-6.89,22.1-15.49,45.2-25.6,68.89-7.26-13.78-14.93-27.67-23.01-41.63h0ZM400.38,137.17c15.76,17.08,31.55,36.15,47.08,56.83-15.65-.74-31.49-1.12-47.46-1.12s-31.54.38-47.09,1.1c15.54-20.5,31.47-39.54,47.48-56.81h0ZM258.76,274.47c-7.91,13.71-15.44,27.53-22.58,41.37-9.95-23.6-18.47-46.81-25.42-69.22,22.83-5.11,47.17-9.28,72.53-12.45-8.4,13.1-16.6,26.55-24.52,40.3h0ZM284.01,478.7c-26.2-2.92-50.91-6.88-73.73-11.85,7.07-22.81,15.77-46.52,25.93-70.63,7.16,13.83,14.72,27.65,22.68,41.39h0c8.1,14,16.5,27.71,25.12,41.08h0ZM401.33,575.67c-16.2-17.48-32.35-36.81-48.13-57.6,15.32.6,30.93.91,46.81.91s32.43-.37,48.29-1.07c-15.58,21.17-31.31,40.53-46.96,57.77h0ZM564.45,394.99c10.69,24.37,19.71,47.95,26.86,70.37-23.2,5.29-48.24,9.55-74.63,12.72,8.3-13.16,16.5-26.74,24.56-40.71,8.15-14.13,15.89-28.28,23.2-42.39h0ZM511.64,420.3c-12.51,21.68-25.34,42.38-38.38,61.92-23.74,1.7-48.26,2.57-73.26,2.57s-49.11-.77-72.43-2.29c-13.56-19.79-26.68-40.56-39.1-62.02h0c-12.39-21.41-23.8-42.99-34.13-64.46,10.33-21.52,21.71-43.13,34.03-64.49h0c12.35-21.42,25.36-42.08,38.79-61.75,23.79-1.8,48.19-2.74,72.85-2.74h0c24.77,0,49.2.95,72.98,2.76,13.23,19.53,26.14,40.12,38.55,61.55,12.54,21.67,24.07,43.13,34.49,64.19-10.39,21.42-21.89,43.1-34.38,64.76h0ZM582.14,38.67c26.79,15.45,37.21,77.75,20.38,159.46-1.07,5.21-2.28,10.52-3.6,15.9-33.19-7.66-69.23-13.36-106.97-16.9-21.98-31.3-44.76-59.76-67.63-84.4,6.15-5.91,12.29-11.55,18.4-16.87,59.06-51.4,114.26-71.69,139.41-57.19h0ZM400,283.78c39.45,0,71.44,31.98,71.44,71.44s-31.98,71.44-71.44,71.44-71.44-31.98-71.44-71.44,31.98-71.44,71.44-71.44h0Z" fill="#00d8ff"/></g></svg>