<?xml version="1.0" encoding="UTF-8"?><svg id="uuid-c760f3c9-c266-4509-ac8d-6932c787e344" xmlns="http://www.w3.org/2000/svg" viewBox="0 0 800 800"><g id="uuid-4bf4c83b-aaec-4ae5-8b02-2b33e3874b6c"><path d="M400.01,0C179.38.01.04,179.38,0,399.99c.04,220.6,179.38,399.97,400.01,400.01,220.6-.04,399.97-179.4,399.99-400.01C799.98,179.38,620.61.01,400.01,0ZM657.4,657.38c-66.03,66-156.96,106.8-257.39,106.82-100.44-.01-191.39-40.81-257.39-106.82-66-66-106.79-156.96-106.8-257.38.01-100.43,40.8-191.37,106.8-257.39,66-65.98,156.95-106.78,257.39-106.79,100.43.01,191.37,40.82,257.39,106.79,65.97,66.03,106.78,156.95,106.79,257.39-.01,100.42-40.81,191.38-106.79,257.38Z"/><path d="M112.55,271.65h-2.26c-17.41,39.25-27.14,82.63-27.14,128.34,0,124.71,72.05,232.53,176.78,284.25L112.56,271.65h-.01Z"/><path d="M579.95,284.99c-27.32-38.21-23.27-116.31,26.97-124.87-55.53-47.92-127.81-76.99-206.91-76.99-112.33,0-210.95,58.49-267.21,146.65h115.98v41.87h-46.75l108.23,302.95,75.92-202.94-35.75-100.01h-54.07v-41.87h194.1v41.87h-50.56l109.15,305.58,55.31-147.77c9.81-39.83,4.07-104.52-24.42-144.48Z"/><path d="M694.55,283.25c-.12,1.2-.25,2.42-.43,3.6-7.66,51.44-55.3,164.26-55.3,164.26l-68.97,184.37-15.39,41.17c96.88-54.2,162.4-157.73,162.4-276.65,0-41.25-7.96-80.61-22.31-116.75Z"/><path d="M331.03,632.75l-26.04,69.59c30,9.43,61.9,14.51,95.01,14.51,36.19,0,70.92-6.13,103.32-17.32l-96.37-269.77-75.92,202.99Z"/></g></svg>