<?xml version="1.0" encoding="UTF-8"?><svg id="uuid-10d7d963-d422-47b6-822a-5b1ac196f060" xmlns="http://www.w3.org/2000/svg" viewBox="0 0 533.42 292.27"><g id="uuid-4af82eaf-2a8b-4e6f-afc8-90815826e308"><path d="M271.58,292.27H1.2V21.9h270.37v270.37ZM9.86,283.62h253.06V30.55H9.86v253.06Z" fill="#0f3d59"/><rect x="-6.98" y="130.76" width="152.39" height="8.65" transform="translate(-55.55 48.65) rotate(-28.16)" fill="#0f3d59"/><rect x="123.88" y="193.04" width="152.39" height="8.65" transform="translate(-69.46 117.77) rotate(-28.16)" fill="#0f3d59"/><path d="M284.05,60.34c24.63-2.48,49.55-3.58,74.16-6.47,1.66-.19,6.87-.45,7.1-2.58h-81.27v-28.43h135.45v47.82c-24.61,2.63-49.59,3.59-74.16,6.47-1.66.19-6.87.45-7.1,2.58h81.27v71.72l-1.93,1.94h-131.58l-1.93-1.94V60.34Z" fill="#0f3d59"/><polyline points="339.37 189.16 339.17 290.31 337.36 292.27 284.05 292.27 284.05 161.74" fill="#0f3d59"/><polygon points="419.68 291.71 419.68 263.33 405.54 263.26 405.33 163.75 403.53 161.72 348.66 161.72 348.66 291.71 419.68 291.71" fill="#0f3d59"/><path d="M530.33,161.72h-101.75v129.99h103.66v-128.09l-1.9-1.9ZM470.54,263.19h-22.89v-82.68h22.89v82.68Z" fill="#0f3d59"/><polygon points="532.07 24.75 532.07 152.83 512.41 152.83 512.41 83.45 489.53 83.45 489.53 152.83 428.4 152.83 428.4 22.84 489.53 22.84 489.53 65.5 512.41 65.5 512.41 22.84 530.15 22.84 532.07 24.75" fill="#0f3d59"/><text transform="translate(495.52 16.78)" fill="#0f3d59" font-family="Benzin-Regular, Benzin-Regular" font-size="19.29"><tspan x="0" y="0">™</tspan></text></g></svg>