<?xml version="1.0" encoding="UTF-8"?><svg id="uuid-60c81ce8-ff1d-41b9-9b23-cd17239d2517" xmlns="http://www.w3.org/2000/svg" viewBox="0 0 580.61 506.5"><g id="uuid-8c3601e5-7371-47d9-9109-948331b10dbe"><path d="M491.46,116.9v193.48c-17.49-33.86-38.06-64.25-64.35-91.38-15.37,13.74-30.82,27.56-46.42,41.51,55.12,62.53,91.97,133.83,107.76,215.74h61.34V30.68c-8.11,0-16.06-.1-24.01.1-1.26.03-2.63,1.29-3.7,2.26-40.84,37.07-81.54,74.28-122.49,111.23-55.04,49.68-110.29,99.14-165.41,148.73-20.93,18.83-41.76,37.78-62.66,56.65-.8.72-1.83,1.65-2.77,1.68-5.62.16-11.24.08-17.29.08,0-8.48-.18-16.44.15-24.38.07-1.63,1.74-3.46,3.12-4.72,34.25-31.19,68.5-62.37,102.86-93.44,60.55-54.76,121.16-109.46,181.76-164.17,23.25-20.99,46.5-41.97,69.81-62.9,1.02-.92,2.56-1.8,3.85-1.81,22.16-.04,44.33.05,66.49.13.29,0,.58.23,1.12.46v505.9H0V.29h434.11c-4.42,4.1-8.41,7.9-12.49,11.59-62.32,56.29-124.69,112.52-186.97,168.85-38.42,34.76-76.71,69.67-114.98,104.61-1.4,1.28-2.75,3.5-2.76,5.3-.16,30.5-.11,61-.08,91.5,0,.96.17,1.91.31,3.38,2.02,0,3.81,0,5.59,0,22,0,44-.11,66,.08,3.82.03,6.58-1.14,9.31-3.63,43.64-39.68,87.26-79.39,131.05-118.91,50.59-45.66,101.35-91.14,152.03-136.7,3.22-2.89,6.39-5.83,10.34-9.45ZM448.83,476.29c-.3-1.69-.47-2.82-.71-3.94-5.64-25.61-13.68-50.42-24.28-74.43-17.15-38.82-38.66-74.81-67.5-106.2-3.1-3.38-5.38-3.49-8.66-.53-13.48,12.16-27.06,24.22-40.68,36.24-1.33,1.18-3.11,1.84-4.58,2.69,24.04,26.9,41.38,55.86,56.92,86.52H86.48c-.2-.74-.36-1.06-.36-1.38-.01-45.49-.04-90.99.08-136.48,0-1.51,1.09-3.41,2.26-4.48,51.89-47.44,103.77-94.9,155.83-142.15,36.39-33.03,73.06-65.75,109.59-98.63.73-.66,1.2-1.6,1.88-2.53H30.96v159.18c1.12-.76,1.81-1.12,2.37-1.63,16.95-15.28,33.93-30.54,50.75-45.96,1.23-1.12,1.89-3.42,1.93-5.18.19-8.16.06-16.33.06-24.49,0-9.95,0-19.9,0-30.11h137.26c-.98,1.11-1.43,1.73-1.99,2.23-14.49,13.04-29.04,26.01-43.47,39.1-47.87,43.45-95.67,86.97-143.6,130.35-2.6,2.35-3.65,4.58-3.64,8.06.1,69.49.07,138.98.06,208.47,0,1.76,0,3.52,0,5.29h418.15Z"/></g></svg>